<svg xmlns="http://www.w3.org/2000/svg" version="1.1" xmlns:xlink="http://www.w3.org/1999/xlink" xmlns:svgjs="http://svgjs.dev/svgjs" width="100" height="100"><svg inkscape:export-ydpi="600" inkscape:export-xdpi="600" inkscape:export-filename="D:\Arckram Kreator Studios\Media\Logo\Finished\LOGO_TEXT_B_Transparent.png" width="100" height="100" viewBox="0 0 26.458333 26.458333" version="1.1" id="SvgjsSvg1908" inkscape:version="1.3.2 (091e20e, 2023-11-25, custom)" sodipodi:docname="Arckram_Kreator- Favicon-LightMode.svg" xmlns:inkscape="http://www.inkscape.org/namespaces/inkscape" xmlns:sodipodi="http://sodipodi.sourceforge.net/DTD/sodipodi-0.dtd" xmlns="http://www.w3.org/2000/svg" xmlns:svg="http://www.w3.org/2000/svg" xmlns:rdf="http://www.w3.org/1999/02/22-rdf-syntax-ns#" xmlns:cc="http://creativecommons.org/ns#" xmlns:dc="http://purl.org/dc/elements/1.1/">
  <defs id="SvgjsDefs1907"></defs>
  <sodipodi:namedview id="SvgjsSodipodi:namedview1906" pagecolor="#ffffff" bordercolor="#666666" borderopacity="1.0" inkscape:pageopacity="0.0" inkscape:pageshadow="2" inkscape:zoom="5.6568544" inkscape:cx="40.747027" inkscape:cy="72.036502" inkscape:document-units="mm" inkscape:current-layer="g1074" inkscape:document-rotation="0" showgrid="false" showborder="false" inkscape:snap-to-guides="true" inkscape:snap-grids="true" showguides="false" inkscape:guide-bbox="true" guidecolor="#950000" guideopacity="0.88627451" inkscape:lockguides="true" inkscape:window-width="1920" inkscape:window-height="1027" inkscape:window-x="1912" inkscape:window-y="-8" inkscape:window-maximized="1" inkscape:pagecheckerboard="true" inkscape:showpageshadow="false" borderlayer="false" inkscape:deskcolor="#505050">
    <inkscape:grid type="xygrid" id="SvgjsInkscape:grid1905" dotted="false" spacingy="1.3229167" spacingx="1.3229167" units="px" color="#3f3fff" opacity="0.10588235" empcolor="#3f3fff" empopacity="0.39607843" empspacing="5" visible="false" originx="0" originy="0"></inkscape:grid>
    <sodipodi:guide position="112.44792,125.02083" orientation="0,-1" id="SvgjsSodipodi:guide1904" inkscape:locked="true"></sodipodi:guide>
    <sodipodi:guide position="-72.760419,158.09375" orientation="0,-1" id="SvgjsSodipodi:guide1903" inkscape:locked="true"></sodipodi:guide>
    <sodipodi:guide position="-72.760419,164.70833" orientation="0,-1" id="SvgjsSodipodi:guide1902" inkscape:locked="true"></sodipodi:guide>
    <sodipodi:guide position="-72.760419,118.40625" orientation="0,-1" id="SvgjsSodipodi:guide1901" inkscape:locked="true"></sodipodi:guide>
    <sodipodi:guide position="-76.067708,130.53316" orientation="0,-1" id="SvgjsSodipodi:guide1900" inkscape:locked="true"></sodipodi:guide>
    <sodipodi:guide position="-76.067708,152.58143" orientation="0,-1" id="SvgjsSodipodi:guide1899" inkscape:locked="true"></sodipodi:guide>
    <sodipodi:guide position="6.6145835,158.09375" orientation="125.00001,-75.000006" id="SvgjsSodipodi:guide1898" inkscape:locked="true"></sodipodi:guide>
    <sodipodi:guide position="-46.302086,158.09375" orientation="125.00001,75.000008" id="SvgjsSodipodi:guide1897" inkscape:locked="true"></sodipodi:guide>
    <sodipodi:guide position="-26.458334,125.02083" orientation="-125.00001,75.000006" id="SvgjsSodipodi:guide1896" inkscape:locked="true"></sodipodi:guide>
    <sodipodi:guide position="-1.0000001e-06,125.02083" orientation="-125.00001,-75.000011" id="SvgjsSodipodi:guide1895" inkscape:locked="true"></sodipodi:guide>
    <sodipodi:guide position="-19.843754,158.09375" orientation="125.00001,-74.999989" id="SvgjsSodipodi:guide1894" inkscape:locked="true"></sodipodi:guide>
    <sodipodi:guide position="-39.687501,125.02083" orientation="-125.00001,-75.000004" id="SvgjsSodipodi:guide1893" inkscape:locked="true"></sodipodi:guide>
    <sodipodi:guide position="-46.302084,125.02083" orientation="-125.00001,75" id="SvgjsSodipodi:guide1892" inkscape:locked="true"></sodipodi:guide>
    <sodipodi:guide position="-26.458334,158.09375" orientation="125.00001,75.000002" id="SvgjsSodipodi:guide1891" inkscape:locked="true"></sodipodi:guide>
    <sodipodi:guide position="-52.916667,125.02083" orientation="-125.00001,75.000004" id="SvgjsSodipodi:guide1890" inkscape:locked="true"></sodipodi:guide>
    <sodipodi:guide position="-33.072916,158.09375" orientation="125.00001,74.999996" id="SvgjsSodipodi:guide1889" inkscape:locked="true"></sodipodi:guide>
    <sodipodi:guide position="-59.531249,125.02083" orientation="-125.00001,74.999992" id="SvgjsSodipodi:guide1888" inkscape:locked="true"></sodipodi:guide>
    <sodipodi:guide position="-39.687501,158.09375" orientation="125.00001,75" id="SvgjsSodipodi:guide1887" inkscape:locked="true"></sodipodi:guide>
    <sodipodi:guide position="-19.843751,125.02083" orientation="-125.00001,75.000004" id="SvgjsSodipodi:guide1886" inkscape:locked="true"></sodipodi:guide>
    <sodipodi:guide position="-52.91667,158.09375" orientation="125.00001,75.000011" id="SvgjsSodipodi:guide1885" inkscape:locked="true"></sodipodi:guide>
    <sodipodi:guide position="-33.072917,125.02083" orientation="-125.00001,75.000004" id="SvgjsSodipodi:guide1884" inkscape:locked="true"></sodipodi:guide>
    <sodipodi:guide position="-13.229166,158.09375" orientation="125.00001,74.999989" id="SvgjsSodipodi:guide1883" inkscape:locked="true"></sodipodi:guide>
    <sodipodi:guide position="-42.994693,152.58143" orientation="1,0" id="SvgjsSodipodi:guide1882" inkscape:locked="true"></sodipodi:guide>
    <sodipodi:guide position="-36.380307,152.58143" orientation="1,0" id="SvgjsSodipodi:guide1881" inkscape:locked="true"></sodipodi:guide>
    <sodipodi:guide position="-29.765624,152.5816" orientation="1,0" id="SvgjsSodipodi:guide1880" inkscape:locked="true"></sodipodi:guide>
    <sodipodi:guide position="-16.536459,152.5816" orientation="1,0" id="SvgjsSodipodi:guide1879" inkscape:locked="true"></sodipodi:guide>
    <sodipodi:guide inkscape:locked="true" position="-9.9218741,152.5816" orientation="1,0" id="SvgjsSodipodi:guide1878"></sodipodi:guide>
    <sodipodi:guide position="-9.9217739,125.02083" orientation="-125.00001,75.000009" inkscape:locked="true" id="SvgjsSodipodi:guide1877"></sodipodi:guide>
    <sodipodi:guide position="-16.536358,125.02083" orientation="-125.00001,75.000009" inkscape:locked="true" id="SvgjsSodipodi:guide1876"></sodipodi:guide>
    <sodipodi:guide position="-23.150943,125.02083" orientation="-125.00001,75.000009" inkscape:locked="true" id="SvgjsSodipodi:guide1875"></sodipodi:guide>
    <sodipodi:guide position="-29.765527,125.02083" orientation="-125.00001,75.000008" inkscape:locked="true" id="SvgjsSodipodi:guide1874"></sodipodi:guide>
    <sodipodi:guide position="-36.380108,125.02083" orientation="-125.00001,75.000008" inkscape:locked="true" id="SvgjsSodipodi:guide1873"></sodipodi:guide>
    <sodipodi:guide position="-42.994692,125.02083" orientation="-125.00001,75.000008" inkscape:locked="true" id="SvgjsSodipodi:guide1872"></sodipodi:guide>
    <sodipodi:guide position="-49.609277,125.02083" orientation="-125.00001,75.000008" inkscape:locked="true" id="SvgjsSodipodi:guide1871"></sodipodi:guide>
    <sodipodi:guide position="-56.223861,125.02083" orientation="-125.00001,75.000008" inkscape:locked="true" id="SvgjsSodipodi:guide1870"></sodipodi:guide>
    <sodipodi:guide position="-9.9217749,158.09375" orientation="125.00001,75.000008" inkscape:locked="true" id="SvgjsSodipodi:guide1869"></sodipodi:guide>
    <sodipodi:guide position="-16.536359,158.09375" orientation="125.00001,75.000008" inkscape:locked="true" id="SvgjsSodipodi:guide1868"></sodipodi:guide>
    <sodipodi:guide position="-23.150944,158.09375" orientation="125.00001,75.000008" inkscape:locked="true" id="SvgjsSodipodi:guide1867"></sodipodi:guide>
    <sodipodi:guide position="-29.765528,158.09375" orientation="125.00001,75.000008" inkscape:locked="true" id="SvgjsSodipodi:guide1866"></sodipodi:guide>
    <sodipodi:guide position="-42.994693,158.09375" orientation="125.00001,75.000008" inkscape:locked="true" id="SvgjsSodipodi:guide1865"></sodipodi:guide>
    <sodipodi:guide position="-49.609278,158.09375" orientation="125.00001,75.000008" inkscape:locked="true" id="SvgjsSodipodi:guide1864"></sodipodi:guide>
    <sodipodi:guide position="-56.223862,158.09375" orientation="125.00001,75.000008" inkscape:locked="true" id="SvgjsSodipodi:guide1863"></sodipodi:guide>
    <sodipodi:guide inkscape:locked="true" position="-38.033804,155.33759" orientation="1,0" id="SvgjsSodipodi:guide1862"></sodipodi:guide>
    <sodipodi:guide position="-36.380307,158.09342" orientation="125.00001,75" inkscape:locked="true" id="SvgjsSodipodi:guide1861"></sodipodi:guide>
    <sodipodi:guide inkscape:locked="true" position="-38.033803,149.82561" orientation="0,-1" id="SvgjsSodipodi:guide1860"></sodipodi:guide>
    <sodipodi:guide inkscape:locked="true" position="-39.6873,152.58143" orientation="1,0" id="SvgjsSodipodi:guide1859"></sodipodi:guide>
    <inkscape:grid type="xygrid" id="SvgjsInkscape:grid1858" spacingx="0.66145834" spacingy="0.66145834" empcolor="#3f3fff" empopacity="0.63529412" color="#3f3fff" opacity="0.1254902" empspacing="10" originx="0" originy="0" units="mm" visible="false"></inkscape:grid>
    <sodipodi:guide inkscape:locked="true" id="SvgjsSodipodi:guide1857" orientation="1,0" position="-125.80935,71.045842"></sodipodi:guide>
    <sodipodi:guide inkscape:locked="true" id="SvgjsSodipodi:guide1856" orientation="0,-1" position="-88.106238,147.11353"></sodipodi:guide>
    <sodipodi:guide inkscape:locked="true" id="SvgjsSodipodi:guide1855" orientation="0,-1" position="-88.106238,111.39478"></sodipodi:guide>
    <sodipodi:guide inkscape:locked="true" id="SvgjsSodipodi:guide1854" orientation="0,-1" position="-146.11625,149.82561"></sodipodi:guide>
    <sodipodi:guide inkscape:locked="true" id="SvgjsSodipodi:guide1853" orientation="0.70710678,-0.70710678" position="-82.81457,141.82187"></sodipodi:guide>
    <sodipodi:guide inkscape:locked="true" id="SvgjsSodipodi:guide1852" orientation="-0.70710678,-0.70710678" position="-82.814568,116.68646"></sodipodi:guide>
    <sodipodi:guide inkscape:locked="true" id="SvgjsSodipodi:guide1851" orientation="0,-1" position="-95.382272,129.25417"></sodipodi:guide>
    <sodipodi:guide inkscape:locked="true" id="SvgjsSodipodi:guide1850" orientation="0.70710678,-0.70710678" position="-168.80414,116.68647"></sodipodi:guide>
    <sodipodi:guide inkscape:locked="true" id="SvgjsSodipodi:guide1849" orientation="-0.70710678,-0.70710678" position="-168.80414,141.82188"></sodipodi:guide>
    <sodipodi:guide id="SvgjsSodipodi:guide1848" orientation="0,-1" position="-224.89584,65.489578" inkscape:locked="true"></sodipodi:guide>
    <sodipodi:guide id="SvgjsSodipodi:guide1847" orientation="0,-1" position="-125.67708,197.78125" inkscape:locked="true"></sodipodi:guide>
    <sodipodi:guide id="SvgjsSodipodi:guide1846" orientation="1,0" position="-191.82291,191.16667" inkscape:locked="true"></sodipodi:guide>
    <sodipodi:guide id="SvgjsSodipodi:guide1845" orientation="1,0" position="-59.53125,177.9375" inkscape:locked="true"></sodipodi:guide>
    <sodipodi:guide id="SvgjsSodipodi:guide1844" orientation="0.70710678,-0.70710678" position="-191.82291,65.489579" inkscape:locked="true"></sodipodi:guide>
    <sodipodi:guide id="SvgjsSodipodi:guide1843" orientation="-0.70710678,-0.70710678" position="-191.82291,197.78125" inkscape:locked="true"></sodipodi:guide>
  </sodipodi:namedview>
  <metadata id="SvgjsMetadata1842">
    <rdf:rdf>
      <cc:work rdf:about="">
        <dc:format>image/svg+xml</dc:format>
        <dc:type rdf:resource="http://purl.org/dc/dcmitype/StillImage"></dc:type>
      </cc:work>
    </rdf:rdf>
  </metadata>
  <g style="display:inline" inkscape:label="White_LOGO" id="SvgjsG1841" inkscape:groupmode="layer">
    <g style="display:inline;opacity:1" inkscape:label="Logo" id="SvgjsG1840" inkscape:groupmode="layer">
      <g id="SvgjsG1839" transform="matrix(0.21505374,0,0,0.21505374,77.952504,-53.627905)">
        <path style="fill:#666666;stroke:none;stroke-width:0.264583px;stroke-linecap:butt;stroke-linejoin:miter;stroke-opacity:1" d="m -324.11458,296.33333 5.29167,-5.29167 h 35.71875 l 5.29166,5.29167 v 35.71875 l -5.29166,5.29167 h -35.71875 l -5.29167,-5.29167 z" id="SvgjsPath1838"></path>
        <path style="fill:#cccccc;stroke:none;stroke-width:0.264583px;stroke-linecap:butt;stroke-linejoin:miter;stroke-opacity:1" d="m -320.14583,298.97916 3.96875,-3.96875 H -285.75 l 3.96875,3.96875 v 30.42709 L -285.75,333.375 h -30.42708 l -3.96875,-3.96875 z" id="SvgjsPath1837"></path>
        <path transform="scale(0.26458333)" id="SvgjsPath1836" style="fill:#666666;stroke:none;stroke-width:0.999999px;stroke-linecap:butt;stroke-linejoin:miter;stroke-opacity:1" d="M -1155.6973,1122.5 H -1192.5 l -10,10 v 36.8008 a 67.5,67.500008 0 0 1 0.061,-0.2168 67.5,67.500008 0 0 1 0.1934,-0.6641 67.5,67.500008 0 0 1 0.1973,-0.6621 67.5,67.500008 0 0 1 0.205,-0.6601 67.5,67.500008 0 0 1 0.2129,-0.6563 67.5,67.500008 0 0 1 0.2188,-0.6562 67.5,67.500008 0 0 1 0.2266,-0.6524 67.5,67.500008 0 0 1 0.2324,-0.6504 67.5,67.500008 0 0 1 0.2383,-0.6484 67.5,67.500008 0 0 1 0.246,-0.6465 67.5,67.500008 0 0 1 0.252,-0.6426 67.5,67.500008 0 0 1 0.2578,-0.6406 67.5,67.500008 0 0 1 0.2656,-0.6387 67.5,67.500008 0 0 1 0.2715,-0.6347 67.5,67.500008 0 0 1 0.2793,-0.6329 67.5,67.500008 0 0 1 0.2832,-0.6289 67.5,67.500008 0 0 1 0.291,-0.6269 67.5,67.500008 0 0 1 0.2989,-0.6231 67.5,67.500008 0 0 1 0.3027,-0.6211 67.5,67.500008 0 0 1 0.3106,-0.6171 67.5,67.500008 0 0 1 0.3164,-0.6133 67.5,67.500008 0 0 1 0.3222,-0.6114 67.5,67.500008 0 0 1 0.3301,-0.6074 67.5,67.500008 0 0 1 0.3359,-0.6035 67.5,67.500008 0 0 1 0.3399,-0.6015 67.5,67.500008 0 0 1 0.3476,-0.5958 67.5,67.500008 0 0 1 0.3536,-0.5937 67.5,67.500008 0 0 1 0.3613,-0.5898 67.5,67.500008 0 0 1 0.3652,-0.586 67.5,67.500008 0 0 1 0.3711,-0.584 67.5,67.500008 0 0 1 0.377,-0.5781 67.5,67.500008 0 0 1 0.3847,-0.5742 67.5,67.500008 0 0 1 0.3887,-0.5703 67.5,67.500008 0 0 1 0.3945,-0.5664 67.5,67.500008 0 0 1 0.4024,-0.5625 67.5,67.500008 0 0 1 0.4062,-0.5586 67.5,67.500008 0 0 1 0.4121,-0.5547 67.5,67.500008 0 0 1 0.418,-0.5508 67.5,67.500008 0 0 1 0.4238,-0.5449 67.5,67.500008 0 0 1 0.4297,-0.541 67.5,67.500008 0 0 1 0.4336,-0.5371 67.5,67.500008 0 0 1 0.4414,-0.5332 67.5,67.500008 0 0 1 0.4453,-0.5274 67.5,67.500008 0 0 1 0.4512,-0.5234 67.5,67.500008 0 0 1 0.457,-0.5196 67.5,67.500008 0 0 1 0.461,-0.5136 67.5,67.500008 0 0 1 0.4668,-0.5098 67.5,67.500008 0 0 1 0.4726,-0.5039 67.5,67.500008 0 0 1 0.4766,-0.5 67.5,67.500008 0 0 1 0.4824,-0.4941 67.5,67.500008 0 0 1 0.4883,-0.4903 67.5,67.500008 0 0 1 0.4922,-0.4844 67.5,67.500008 0 0 1 0.4961,-0.4785 67.5,67.500008 0 0 1 0.5019,-0.4746 67.5,67.500008 0 0 1 0.5078,-0.4687 67.5,67.500008 0 0 1 0.5118,-0.4649 67.5,67.500008 0 0 1 0.5156,-0.459 67.5,67.500008 0 0 1 0.5215,-0.4531 67.5,67.500008 0 0 1 0.5254,-0.4492 67.5,67.500008 0 0 1 0.5312,-0.4414 67.5,67.500008 0 0 1 0.5352,-0.4375 67.5,67.500008 0 0 1 0.539,-0.4316 67.5,67.500008 0 0 1 0.543,-0.4278 67.5,67.500008 0 0 1 0.5488,-0.4199 67.5,67.500008 0 0 1 0.5508,-0.416 67.5,67.500008 0 0 1 0.5566,-0.4082 67.5,67.500008 0 0 1 0.5606,-0.4043 67.5,67.500008 0 0 1 0.5664,-0.3985 67.5,67.500008 0 0 1 0.5684,-0.3925 67.5,67.500008 0 0 1 0.5722,-0.3848 67.5,67.500008 0 0 1 0.5762,-0.3809 67.5,67.500008 0 0 1 0.582,-0.375 67.5,67.500008 0 0 1 0.584,-0.3671 67.5,67.500008 0 0 1 0.5879,-0.3633 67.5,67.500008 0 0 1 0.5918,-0.3574 67.5,67.500008 0 0 1 0.5957,-0.3497 67.5,67.500008 0 0 1 0.5977,-0.3437 67.5,67.500008 0 0 1 0.6035,-0.3379 67.5,67.500008 0 0 1 0.6054,-0.332 67.5,67.500008 0 0 1 0.6094,-0.3262 67.5,67.500008 0 0 1 0.6133,-0.3203 67.5,67.500008 0 0 1 0.6152,-0.3125 67.5,67.500008 0 0 1 0.6192,-0.3067 67.5,67.500008 0 0 1 0.6211,-0.3007 67.5,67.500008 0 0 1 0.625,-0.295 67.5,67.500008 0 0 1 0.6289,-0.2871 67.5,67.500008 0 0 1 0.6308,-0.2812 67.5,67.500008 0 0 1 0.6348,-0.2754 67.5,67.500008 0 0 1 0.6348,-0.2676 67.5,67.500008 0 0 1 0.6406,-0.2617 67.5,67.500008 0 0 1 0.6426,-0.2559 67.5,67.500008 0 0 1 0.6445,-0.248 67.5,67.500008 0 0 1 0.6465,-0.2422 67.5,67.500008 0 0 1 0.6484,-0.2363 67.5,67.500008 0 0 1 0.6524,-0.2285 67.5,67.500008 0 0 1 0.6543,-0.2207 67.5,67.500008 0 0 1 0.6562,-0.2168 67.5,67.500008 0 0 1 0.6582,-0.209 67.5,67.500008 0 0 1 0.6621,-0.2012 67.5,67.500008 0 0 1 0.6621,-0.1953 67.5,67.500008 0 0 1 0.5332,-0.1504 z"></path>
        <circle style="fill:#666666;fill-opacity:0.976471;stroke:none;stroke-width:0.264999;stroke-linecap:round;stroke-linejoin:miter;stroke-miterlimit:4;stroke-dasharray:none;stroke-opacity:1;paint-order:normal" id="SvgjsCircle1835" cx="-300.96353" cy="314.19272" r="15.875"></circle>
        <path sodipodi:nodetypes="ccccc" id="SvgjsPath1834" d="m -338.66666,296.33333 h 14.55208 v 35.71875 l -14.55207,-10e-6 z" style="fill:#cccccc;stroke:none;stroke-width:0.264583px;stroke-linecap:butt;stroke-linejoin:miter;stroke-opacity:1"></path>
        <path id="SvgjsPath1833" d="m -338.66666,296.33333 -5.29167,5.29167 v 25.13541 l 5.29167,5.29167 z" style="fill:#666666;stroke:none;stroke-width:0.264583px;stroke-linecap:butt;stroke-linejoin:miter;stroke-opacity:1"></path>
        <path id="SvgjsPath1832" d="m -314.1927,291.04166 3.96875,-7.93747 18.52083,-3e-5 3.96875,7.9375 z" style="fill:#cccccc;stroke:none;stroke-width:0.264583px;stroke-linecap:butt;stroke-linejoin:miter;stroke-opacity:1"></path>
        <path id="SvgjsPath1831" d="m -304.93229,283.10416 v -33.73437 h 7.9375 v 33.73437 z" style="fill:#999999;fill-opacity:1;stroke:none;stroke-width:0.264583px;stroke-linecap:butt;stroke-linejoin:miter;stroke-opacity:1"></path>
        <path sodipodi:nodetypes="ccccccccccccccc" id="SvgjsPath1830" d="m -306.91666,249.36979 -1e-5,31.75 h -4.63021 l -3.96875,7.9375 h -4.6302 l -5.29167,5.29166 -14.55209,10e-6 -3.96875,3.96875 1e-5,-10.58334 5.29167,-5.29167 h 12.56771 l 4.6302,-9.26041 h 4.63021 l 3.30729,-18.52083 z" style="fill:#666666;stroke:none;stroke-width:0.264583px;stroke-linecap:butt;stroke-linejoin:miter;stroke-opacity:1"></path>
        <path sodipodi:nodetypes="ccccccc" id="SvgjsPath1829" d="m -304.27084,339.32813 -15.87499,-10e-6 -5.29167,-5.29167 h -11.24479 l 13.22917,13.22917 11.24478,10e-6 z" style="fill:#666666;stroke:none;stroke-width:0.264583px;stroke-linecap:butt;stroke-linejoin:miter;stroke-opacity:1"></path>
        <path id="SvgjsPath1828" d="m -300.96354,339.32812 -7.9375,7.9375 7.9375,7.9375 7.9375,-7.9375 z" style="fill:#999999;stroke:none;stroke-width:0.264583px;stroke-linecap:butt;stroke-linejoin:miter;stroke-opacity:1"></path>
        <path id="SvgjsPath1827" d="m -310.22395,348.58854 9.26041,9.26041 9.26042,-9.26041 7.27604,7.27604 -16.53646,16.53646 L -317.5,355.86458 Z" style="fill:#666666;stroke:none;stroke-width:0.264583px;stroke-linecap:butt;stroke-linejoin:miter;stroke-opacity:1"></path>
        <path d="m -296.14884,296.99479 h 9.73738 l 2.64583,2.64583 v 9.73688 a 17.859375,17.859377 0 0 0 -0.0161,-0.0574 17.859375,17.859377 0 0 0 -0.0512,-0.17571 17.859375,17.859377 0 0 0 -0.0522,-0.17518 17.859375,17.859377 0 0 0 -0.0542,-0.17465 17.859375,17.859377 0 0 0 -0.0563,-0.17365 17.859375,17.859377 0 0 0 -0.0579,-0.17362 17.859375,17.859377 0 0 0 -0.06,-0.17261 17.859375,17.859377 0 0 0 -0.0615,-0.17209 17.859375,17.859377 0 0 0 -0.063,-0.17155 17.859375,17.859377 0 0 0 -0.0651,-0.17106 17.859375,17.859377 0 0 0 -0.0667,-0.17002 17.859375,17.859377 0 0 0 -0.0682,-0.16949 17.859375,17.859377 0 0 0 -0.0703,-0.16899 17.859375,17.859377 0 0 0 -0.0718,-0.16793 17.859375,17.859377 0 0 0 -0.0739,-0.16745 17.859375,17.859377 0 0 0 -0.0749,-0.1664 17.859375,17.859377 0 0 0 -0.077,-0.16587 17.859375,17.859377 0 0 0 -0.0791,-0.16486 17.859375,17.859377 0 0 0 -0.0801,-0.16433 17.859375,17.859377 0 0 0 -0.0822,-0.16328 17.859375,17.859377 0 0 0 -0.0837,-0.16227 17.859375,17.859377 0 0 0 -0.0853,-0.16176 17.859375,17.859377 0 0 0 -0.0873,-0.16071 17.859375,17.859377 0 0 0 -0.0889,-0.15968 17.859375,17.859377 0 0 0 -0.0899,-0.15914 17.859375,17.859377 0 0 0 -0.092,-0.15764 17.859375,17.859377 0 0 0 -0.0935,-0.15709 17.859375,17.859377 0 0 0 -0.0956,-0.15605 17.859375,17.859377 0 0 0 -0.0966,-0.15504 17.859375,17.859377 0 0 0 -0.0982,-0.15452 17.859375,17.859377 0 0 0 -0.0998,-0.15295 17.859375,17.859377 0 0 0 -0.10178,-0.15193 17.859375,17.859377 0 0 0 -0.10285,-0.15089 17.859375,17.859377 0 0 0 -0.10437,-0.14986 17.859375,17.859377 0 0 0 -0.10647,-0.14883 17.859375,17.859377 0 0 0 -0.10748,-0.14779 17.859375,17.859377 0 0 0 -0.10903,-0.14677 17.859375,17.859377 0 0 0 -0.1106,-0.14573 17.859375,17.859377 0 0 0 -0.11213,-0.14417 17.859375,17.859377 0 0 0 -0.11369,-0.14314 17.859375,17.859377 0 0 0 -0.11472,-0.14211 17.859375,17.859377 0 0 0 -0.11679,-0.14108 17.859375,17.859377 0 0 0 -0.11782,-0.13954 17.859375,17.859377 0 0 0 -0.11938,-0.13848 17.859375,17.859377 0 0 0 -0.12091,-0.13748 17.859375,17.859377 0 0 0 -0.12198,-0.13589 17.859375,17.859377 0 0 0 -0.1235,-0.13488 17.859375,17.859377 0 0 0 -0.12505,-0.13333 17.859375,17.859377 0 0 0 -0.1261,-0.13229 17.859375,17.859377 0 0 0 -0.12763,-0.13073 17.859375,17.859377 0 0 0 -0.1292,-0.12972 17.859375,17.859377 0 0 0 -0.13022,-0.12817 17.859375,17.859377 0 0 0 -0.13126,-0.1266 17.859375,17.859377 0 0 0 -0.1328,-0.12557 17.859375,17.859377 0 0 0 -0.13435,-0.12401 17.859375,17.859377 0 0 0 -0.13542,-0.12301 17.859375,17.859377 0 0 0 -0.13642,-0.12144 17.859375,17.859377 0 0 0 -0.13798,-0.11988 17.859375,17.859377 0 0 0 -0.13901,-0.11885 17.859375,17.859377 0 0 0 -0.14055,-0.11679 17.859375,17.859377 0 0 0 -0.1416,-0.11576 17.859375,17.859377 0 0 0 -0.14261,-0.11419 17.859375,17.859377 0 0 0 -0.14367,-0.11319 17.859375,17.859377 0 0 0 -0.1452,-0.1111 17.859375,17.859377 0 0 0 -0.14574,-0.11006 17.859375,17.859377 0 0 0 -0.14726,-0.10801 17.859375,17.859377 0 0 0 -0.14833,-0.10697 17.859375,17.859377 0 0 0 -0.14986,-0.10543 17.859375,17.859377 0 0 0 -0.15039,-0.10385 17.859375,17.859377 0 0 0 -0.15139,-0.10182 17.859375,17.859377 0 0 0 -0.15246,-0.10078 17.859375,17.859377 0 0 0 -0.15398,-0.0992 17.859375,17.859377 0 0 0 -0.15452,-0.0971 17.859375,17.859377 0 0 0 -0.15555,-0.0961 17.859375,17.859377 0 0 0 -0.15658,-0.0946 17.859375,17.859377 0 0 0 -0.15761,-0.0925 17.859375,17.859377 0 0 0 -0.15814,-0.0909 17.859375,17.859377 0 0 0 -0.15968,-0.0894 17.859375,17.859377 0 0 0 -0.16018,-0.0878 17.859375,17.859377 0 0 0 -0.16123,-0.0863 17.859375,17.859377 0 0 0 -0.16227,-0.0847 17.859375,17.859377 0 0 0 -0.16277,-0.0827 17.859375,17.859377 0 0 0 -0.16383,-0.0812 17.859375,17.859377 0 0 0 -0.16434,-0.0796 17.859375,17.859377 0 0 0 -0.16536,-0.078 17.859375,17.859377 0 0 0 -0.1664,-0.076 17.859375,17.859377 0 0 0 -0.1669,-0.0744 17.859375,17.859377 0 0 0 -0.16795,-0.0729 17.859375,17.859377 0 0 0 -0.16796,-0.0708 17.859375,17.859377 0 0 0 -0.16949,-0.0692 17.859375,17.859377 0 0 0 -0.17003,-0.0677 17.859375,17.859377 0 0 0 -0.17052,-0.0656 17.859375,17.859377 0 0 0 -0.17105,-0.0641 17.859375,17.859377 0 0 0 -0.17156,-0.0625 17.859375,17.859377 0 0 0 -0.17261,-0.0605 17.859375,17.859377 0 0 0 -0.17312,-0.0584 17.859375,17.859377 0 0 0 -0.17362,-0.0574 17.859375,17.859377 0 0 0 -0.17415,-0.0553 17.859375,17.859377 0 0 0 -0.17518,-0.0532 17.859375,17.859377 0 0 0 -0.17518,-0.0517 17.859375,17.859377 0 0 0 -0.14108,-0.0398 z" style="display:inline;opacity:1;fill:#666666;stroke:none;stroke-width:0.264583px;stroke-linecap:butt;stroke-linejoin:miter;stroke-opacity:1" id="SvgjsPath1826"></path>
        <path id="SvgjsPath1825" style="display:inline;opacity:1;fill:#666666;stroke:none;stroke-width:0.264583px;stroke-linecap:butt;stroke-linejoin:miter;stroke-opacity:1" d="m -296.14884,331.39063 h 9.73738 l 2.64583,-2.64583 v -9.73688 a 17.859375,17.859377 0 0 1 -0.0161,0.0574 17.859375,17.859377 0 0 1 -0.0512,0.17571 17.859375,17.859377 0 0 1 -0.0522,0.17518 17.859375,17.859377 0 0 1 -0.0542,0.17465 17.859375,17.859377 0 0 1 -0.0563,0.17365 17.859375,17.859377 0 0 1 -0.0579,0.17362 17.859375,17.859377 0 0 1 -0.06,0.17261 17.859375,17.859377 0 0 1 -0.0615,0.17209 17.859375,17.859377 0 0 1 -0.063,0.17155 17.859375,17.859377 0 0 1 -0.0651,0.17106 17.859375,17.859377 0 0 1 -0.0667,0.17002 17.859375,17.859377 0 0 1 -0.0682,0.16949 17.859375,17.859377 0 0 1 -0.0703,0.16899 17.859375,17.859377 0 0 1 -0.0718,0.16793 17.859375,17.859377 0 0 1 -0.0739,0.16745 17.859375,17.859377 0 0 1 -0.0749,0.1664 17.859375,17.859377 0 0 1 -0.077,0.16587 17.859375,17.859377 0 0 1 -0.0791,0.16486 17.859375,17.859377 0 0 1 -0.0801,0.16433 17.859375,17.859377 0 0 1 -0.0822,0.16328 17.859375,17.859377 0 0 1 -0.0837,0.16227 17.859375,17.859377 0 0 1 -0.0853,0.16176 17.859375,17.859377 0 0 1 -0.0873,0.16071 17.859375,17.859377 0 0 1 -0.0889,0.15968 17.859375,17.859377 0 0 1 -0.0899,0.15914 17.859375,17.859377 0 0 1 -0.092,0.15764 17.859375,17.859377 0 0 1 -0.0935,0.15709 17.859375,17.859377 0 0 1 -0.0956,0.15605 17.859375,17.859377 0 0 1 -0.0966,0.15504 17.859375,17.859377 0 0 1 -0.0982,0.15452 17.859375,17.859377 0 0 1 -0.0998,0.15295 17.859375,17.859377 0 0 1 -0.10178,0.15193 17.859375,17.859377 0 0 1 -0.10285,0.15089 17.859375,17.859377 0 0 1 -0.10437,0.14986 17.859375,17.859377 0 0 1 -0.10647,0.14883 17.859375,17.859377 0 0 1 -0.10748,0.14779 17.859375,17.859377 0 0 1 -0.10903,0.14677 17.859375,17.859377 0 0 1 -0.1106,0.14573 17.859375,17.859377 0 0 1 -0.11213,0.14417 17.859375,17.859377 0 0 1 -0.11369,0.14314 17.859375,17.859377 0 0 1 -0.11472,0.14211 17.859375,17.859377 0 0 1 -0.11679,0.14108 17.859375,17.859377 0 0 1 -0.11782,0.13954 17.859375,17.859377 0 0 1 -0.11938,0.13848 17.859375,17.859377 0 0 1 -0.12091,0.13748 17.859375,17.859377 0 0 1 -0.12198,0.13589 17.859375,17.859377 0 0 1 -0.1235,0.13488 17.859375,17.859377 0 0 1 -0.12505,0.13333 17.859375,17.859377 0 0 1 -0.1261,0.13229 17.859375,17.859377 0 0 1 -0.12763,0.13073 17.859375,17.859377 0 0 1 -0.1292,0.12972 17.859375,17.859377 0 0 1 -0.13022,0.12817 17.859375,17.859377 0 0 1 -0.13126,0.1266 17.859375,17.859377 0 0 1 -0.1328,0.12557 17.859375,17.859377 0 0 1 -0.13435,0.12401 17.859375,17.859377 0 0 1 -0.13542,0.12301 17.859375,17.859377 0 0 1 -0.13642,0.12144 17.859375,17.859377 0 0 1 -0.13798,0.11988 17.859375,17.859377 0 0 1 -0.13901,0.11885 17.859375,17.859377 0 0 1 -0.14055,0.11679 17.859375,17.859377 0 0 1 -0.1416,0.11576 17.859375,17.859377 0 0 1 -0.14261,0.11419 17.859375,17.859377 0 0 1 -0.14367,0.11319 17.859375,17.859377 0 0 1 -0.1452,0.1111 17.859375,17.859377 0 0 1 -0.14574,0.11006 17.859375,17.859377 0 0 1 -0.14726,0.10801 17.859375,17.859377 0 0 1 -0.14833,0.10697 17.859375,17.859377 0 0 1 -0.14986,0.10543 17.859375,17.859377 0 0 1 -0.15039,0.10385 17.859375,17.859377 0 0 1 -0.15139,0.10182 17.859375,17.859377 0 0 1 -0.15246,0.10078 17.859375,17.859377 0 0 1 -0.15398,0.0992 17.859375,17.859377 0 0 1 -0.15452,0.0971 17.859375,17.859377 0 0 1 -0.15555,0.0961 17.859375,17.859377 0 0 1 -0.15658,0.0946 17.859375,17.859377 0 0 1 -0.15761,0.0925 17.859375,17.859377 0 0 1 -0.15814,0.0909 17.859375,17.859377 0 0 1 -0.15968,0.0894 17.859375,17.859377 0 0 1 -0.16018,0.0878 17.859375,17.859377 0 0 1 -0.16123,0.0863 17.859375,17.859377 0 0 1 -0.16227,0.0847 17.859375,17.859377 0 0 1 -0.16277,0.0827 17.859375,17.859377 0 0 1 -0.16383,0.0812 17.859375,17.859377 0 0 1 -0.16434,0.0796 17.859375,17.859377 0 0 1 -0.16536,0.078 17.859375,17.859377 0 0 1 -0.1664,0.076 17.859375,17.859377 0 0 1 -0.1669,0.0744 17.859375,17.859377 0 0 1 -0.16795,0.0729 17.859375,17.859377 0 0 1 -0.16796,0.0708 17.859375,17.859377 0 0 1 -0.16949,0.0692 17.859375,17.859377 0 0 1 -0.17003,0.0677 17.859375,17.859377 0 0 1 -0.17052,0.0656 17.859375,17.859377 0 0 1 -0.17105,0.0641 17.859375,17.859377 0 0 1 -0.17156,0.0625 17.859375,17.859377 0 0 1 -0.17261,0.0605 17.859375,17.859377 0 0 1 -0.17312,0.0584 17.859375,17.859377 0 0 1 -0.17362,0.0574 17.859375,17.859377 0 0 1 -0.17415,0.0553 17.859375,17.859377 0 0 1 -0.17518,0.0532 17.859375,17.859377 0 0 1 -0.17518,0.0517 17.859375,17.859377 0 0 1 -0.14108,0.0398 z"></path>
        <path d="m -305.77825,331.39063 h -9.73738 l -2.64583,-2.64583 v -9.73688 a 17.859375,17.859377 0 0 0 0.0161,0.0574 17.859375,17.859377 0 0 0 0.0512,0.17571 17.859375,17.859377 0 0 0 0.0522,0.17518 17.859375,17.859377 0 0 0 0.0542,0.17465 17.859375,17.859377 0 0 0 0.0563,0.17365 17.859375,17.859377 0 0 0 0.0579,0.17362 17.859375,17.859377 0 0 0 0.06,0.17261 17.859375,17.859377 0 0 0 0.0615,0.17209 17.859375,17.859377 0 0 0 0.063,0.17155 17.859375,17.859377 0 0 0 0.0651,0.17106 17.859375,17.859377 0 0 0 0.0667,0.17002 17.859375,17.859377 0 0 0 0.0682,0.16949 17.859375,17.859377 0 0 0 0.0703,0.16899 17.859375,17.859377 0 0 0 0.0718,0.16793 17.859375,17.859377 0 0 0 0.0739,0.16745 17.859375,17.859377 0 0 0 0.0749,0.1664 17.859375,17.859377 0 0 0 0.077,0.16587 17.859375,17.859377 0 0 0 0.0791,0.16486 17.859375,17.859377 0 0 0 0.0801,0.16433 17.859375,17.859377 0 0 0 0.0822,0.16328 17.859375,17.859377 0 0 0 0.0837,0.16227 17.859375,17.859377 0 0 0 0.0853,0.16176 17.859375,17.859377 0 0 0 0.0873,0.16071 17.859375,17.859377 0 0 0 0.0889,0.15968 17.859375,17.859377 0 0 0 0.0899,0.15914 17.859375,17.859377 0 0 0 0.092,0.15764 17.859375,17.859377 0 0 0 0.0935,0.15709 17.859375,17.859377 0 0 0 0.0956,0.15605 17.859375,17.859377 0 0 0 0.0966,0.15504 17.859375,17.859377 0 0 0 0.0982,0.15452 17.859375,17.859377 0 0 0 0.0998,0.15295 17.859375,17.859377 0 0 0 0.10178,0.15193 17.859375,17.859377 0 0 0 0.10285,0.15089 17.859375,17.859377 0 0 0 0.10437,0.14986 17.859375,17.859377 0 0 0 0.10647,0.14883 17.859375,17.859377 0 0 0 0.10748,0.14779 17.859375,17.859377 0 0 0 0.10903,0.14677 17.859375,17.859377 0 0 0 0.1106,0.14573 17.859375,17.859377 0 0 0 0.11213,0.14417 17.859375,17.859377 0 0 0 0.11369,0.14314 17.859375,17.859377 0 0 0 0.11472,0.14211 17.859375,17.859377 0 0 0 0.11679,0.14108 17.859375,17.859377 0 0 0 0.11782,0.13954 17.859375,17.859377 0 0 0 0.11938,0.13848 17.859375,17.859377 0 0 0 0.12091,0.13748 17.859375,17.859377 0 0 0 0.12198,0.13589 17.859375,17.859377 0 0 0 0.1235,0.13488 17.859375,17.859377 0 0 0 0.12505,0.13333 17.859375,17.859377 0 0 0 0.1261,0.13229 17.859375,17.859377 0 0 0 0.12763,0.13073 17.859375,17.859377 0 0 0 0.1292,0.12972 17.859375,17.859377 0 0 0 0.13022,0.12817 17.859375,17.859377 0 0 0 0.13126,0.1266 17.859375,17.859377 0 0 0 0.1328,0.12557 17.859375,17.859377 0 0 0 0.13435,0.12401 17.859375,17.859377 0 0 0 0.13542,0.12301 17.859375,17.859377 0 0 0 0.13642,0.12144 17.859375,17.859377 0 0 0 0.13798,0.11988 17.859375,17.859377 0 0 0 0.13901,0.11885 17.859375,17.859377 0 0 0 0.14055,0.11679 17.859375,17.859377 0 0 0 0.1416,0.11576 17.859375,17.859377 0 0 0 0.14261,0.11419 17.859375,17.859377 0 0 0 0.14367,0.11319 17.859375,17.859377 0 0 0 0.1452,0.1111 17.859375,17.859377 0 0 0 0.14574,0.11006 17.859375,17.859377 0 0 0 0.14726,0.10801 17.859375,17.859377 0 0 0 0.14833,0.10697 17.859375,17.859377 0 0 0 0.14986,0.10543 17.859375,17.859377 0 0 0 0.15039,0.10385 17.859375,17.859377 0 0 0 0.15139,0.10182 17.859375,17.859377 0 0 0 0.15246,0.10078 17.859375,17.859377 0 0 0 0.15398,0.0992 17.859375,17.859377 0 0 0 0.15452,0.0971 17.859375,17.859377 0 0 0 0.15555,0.0961 17.859375,17.859377 0 0 0 0.15658,0.0946 17.859375,17.859377 0 0 0 0.15761,0.0925 17.859375,17.859377 0 0 0 0.15814,0.0909 17.859375,17.859377 0 0 0 0.15968,0.0894 17.859375,17.859377 0 0 0 0.16018,0.0878 17.859375,17.859377 0 0 0 0.16123,0.0863 17.859375,17.859377 0 0 0 0.16227,0.0847 17.859375,17.859377 0 0 0 0.16277,0.0827 17.859375,17.859377 0 0 0 0.16383,0.0812 17.859375,17.859377 0 0 0 0.16434,0.0796 17.859375,17.859377 0 0 0 0.16536,0.078 17.859375,17.859377 0 0 0 0.1664,0.076 17.859375,17.859377 0 0 0 0.1669,0.0744 17.859375,17.859377 0 0 0 0.16795,0.0729 17.859375,17.859377 0 0 0 0.16796,0.0708 17.859375,17.859377 0 0 0 0.16949,0.0692 17.859375,17.859377 0 0 0 0.17003,0.0677 17.859375,17.859377 0 0 0 0.17052,0.0656 17.859375,17.859377 0 0 0 0.17105,0.0641 17.859375,17.859377 0 0 0 0.17156,0.0625 17.859375,17.859377 0 0 0 0.17261,0.0605 17.859375,17.859377 0 0 0 0.17312,0.0584 17.859375,17.859377 0 0 0 0.17362,0.0574 17.859375,17.859377 0 0 0 0.17415,0.0553 17.859375,17.859377 0 0 0 0.17518,0.0532 17.859375,17.859377 0 0 0 0.17518,0.0517 17.859375,17.859377 0 0 0 0.14108,0.0398 z" style="display:inline;opacity:1;fill:#666666;stroke:none;stroke-width:0.264583px;stroke-linecap:butt;stroke-linejoin:miter;stroke-opacity:1" id="SvgjsPath1824"></path>
        <path style="fill:#cccccc;stroke:none;stroke-width:0.264583px;stroke-linecap:butt;stroke-linejoin:miter;stroke-opacity:1" d="m -277.81251,296.33335 h 14.55208 v 35.71875 l -14.55207,-10e-6 z" id="SvgjsPath1823" sodipodi:nodetypes="ccccc"></path>
        <path style="fill:#666666;stroke:none;stroke-width:0.264583px;stroke-linecap:butt;stroke-linejoin:miter;stroke-opacity:1" d="m -263.26043,296.33334 5.29167,5.29167 v 25.13541 l -5.29167,5.29167 z" id="SvgjsPath1822"></path>
        <path style="fill:#cccccc;stroke:none;stroke-width:0.264583px;stroke-linecap:butt;stroke-linejoin:miter;stroke-opacity:1" d="m -314.1927,349.25 h -10.58334 l -19.18229,-19.1823 -1e-5,23.81251 12.56771,12.56772 z" id="SvgjsPath1821" sodipodi:nodetypes="cccccc"></path>
        <path style="fill:#666666;stroke:none;stroke-width:0.264583px;stroke-linecap:butt;stroke-linejoin:miter;stroke-opacity:1" d="m -297.65624,339.32814 15.87499,-1e-5 5.29167,-5.29167 h 11.24479 l -13.22917,13.22917 -11.24478,1e-5 z" id="SvgjsPath1820" sodipodi:nodetypes="ccccccc"></path>
        <path sodipodi:nodetypes="cccccc" id="SvgjsPath1819" d="m -287.73438,349.25001 h 10.58334 l 19.18229,-19.1823 10e-6,23.81251 -12.56771,12.56772 z" style="fill:#cccccc;stroke:none;stroke-width:0.264583px;stroke-linecap:butt;stroke-linejoin:miter;stroke-opacity:1"></path>
        <path style="fill:#666666;stroke:none;stroke-width:0.264583px;stroke-linecap:butt;stroke-linejoin:miter;stroke-opacity:1" d="m -295.01043,249.36979 10e-6,31.75 h 4.63021 l 3.96875,7.9375 h 4.6302 l 5.29167,5.29166 14.55209,10e-6 3.96875,3.96875 -10e-6,-10.58334 -5.29167,-5.29167 h -12.56771 l -4.6302,-9.26041 h -4.63021 l -3.30729,-18.52083 z" id="SvgjsPath1818" sodipodi:nodetypes="ccccccccccccccc"></path>
      </g>
    </g>
  </g>
</svg><style>@media (prefers-color-scheme: light) { :root { filter: none; } }
@media (prefers-color-scheme: dark) { :root { filter: none; } }
</style></svg>